<?xml version="1.0" encoding="UTF-8"?>
<svg xmlns="http://www.w3.org/2000/svg" xmlns:xlink="http://www.w3.org/1999/xlink" width="55px" height="20px" viewBox="0 0 53 20" version="1.1">
<defs>
<clipPath id="clip1">
  <path d="M 34 1 L 46 1 L 46 13 L 34 13 Z M 34 1 "/>
</clipPath>
<clipPath id="clip2">
  <path d="M 45.105469 2.917969 C 43.457031 0.691406 39.964844 0.542969 37.308594 2.582031 C 34.648438 4.621094 33.828125 8.078125 35.476562 10.304688 C 37.125 12.53125 40.613281 12.683594 43.273438 10.640625 C 45.933594 8.601562 46.753906 5.144531 45.105469 2.917969 Z M 45.105469 2.917969 "/>
</clipPath>
<clipPath id="clip3">
  <path d="M 28.695312 5.507812 L 42.4375 -5.035156 L 51.945312 7.8125 L 38.203125 18.351562 Z M 28.695312 5.507812 "/>
</clipPath>
<clipPath id="clip4">
  <path d="M 45.105469 2.917969 C 43.457031 0.691406 39.964844 0.542969 37.308594 2.582031 C 34.648438 4.621094 33.828125 8.078125 35.476562 10.304688 C 37.125 12.53125 40.613281 12.683594 43.273438 10.640625 C 45.933594 8.601562 46.753906 5.144531 45.105469 2.917969 Z M 45.105469 2.917969 "/>
</clipPath>
<clipPath id="clip5">
  <path d="M 32.519531 6.367188 L 42.144531 -1.015625 L 48.117188 7.050781 L 38.492188 14.433594 Z M 32.519531 6.367188 "/>
</clipPath>
<clipPath id="clip6">
  <path d="M 34 1 L 46 1 L 46 13 L 34 13 Z M 34 1 "/>
</clipPath>
<clipPath id="clip7">
  <path d="M 45.105469 2.917969 C 43.457031 0.691406 39.964844 0.542969 37.308594 2.582031 C 34.648438 4.621094 33.828125 8.078125 35.476562 10.304688 C 37.125 12.53125 40.613281 12.683594 43.273438 10.640625 C 45.933594 8.601562 46.753906 5.144531 45.105469 2.917969 Z M 45.105469 2.917969 "/>
</clipPath>
<clipPath id="clip8">
  <path d="M 28.695312 5.507812 L 42.4375 -5.035156 L 51.945312 7.8125 L 38.203125 18.351562 Z M 28.695312 5.507812 "/>
</clipPath>
<clipPath id="clip9">
  <path d="M 45.105469 2.917969 C 43.457031 0.691406 39.964844 0.542969 37.308594 2.582031 C 34.648438 4.621094 33.828125 8.078125 35.476562 10.304688 C 37.125 12.53125 40.613281 12.683594 43.273438 10.640625 C 45.933594 8.601562 46.753906 5.144531 45.105469 2.917969 Z M 45.105469 2.917969 "/>
</clipPath>
<clipPath id="clip10">
  <path d="M 33.890625 11.210938 L 37.214844 -0.578125 L 46.753906 2.207031 L 43.429688 13.996094 Z M 33.890625 11.210938 "/>
</clipPath>
<clipPath id="clip11">
  <path d="M 34 1 L 46 1 L 46 13 L 34 13 Z M 34 1 "/>
</clipPath>
<clipPath id="clip12">
  <path d="M 45.105469 2.917969 C 43.457031 0.691406 39.964844 0.542969 37.308594 2.582031 C 34.648438 4.621094 33.828125 8.078125 35.476562 10.304688 C 37.125 12.53125 40.613281 12.683594 43.273438 10.640625 C 45.933594 8.601562 46.753906 5.144531 45.105469 2.917969 Z M 45.105469 2.917969 "/>
</clipPath>
<clipPath id="clip13">
  <path d="M 28.695312 5.507812 L 42.4375 -5.035156 L 51.945312 7.8125 L 38.203125 18.351562 Z M 28.695312 5.507812 "/>
</clipPath>
<clipPath id="clip14">
  <path d="M 45.105469 2.917969 C 43.457031 0.691406 39.964844 0.542969 37.308594 2.582031 C 34.648438 4.621094 33.828125 8.078125 35.476562 10.304688 C 37.125 12.53125 40.613281 12.683594 43.273438 10.640625 C 45.933594 8.601562 46.753906 5.144531 45.105469 2.917969 Z M 45.105469 2.917969 "/>
</clipPath>
<clipPath id="clip15">
  <path d="M 32.519531 6.367188 L 42.144531 -1.015625 L 48.117188 7.050781 L 38.492188 14.433594 Z M 32.519531 6.367188 "/>
</clipPath>
<clipPath id="clip16">
  <path d="M 34 1 L 46 1 L 46 13 L 34 13 Z M 34 1 "/>
</clipPath>
<clipPath id="clip17">
  <path d="M 45.105469 2.917969 C 43.457031 0.691406 39.964844 0.542969 37.308594 2.582031 C 34.648438 4.621094 33.828125 8.078125 35.476562 10.304688 C 37.125 12.53125 40.613281 12.683594 43.273438 10.640625 C 45.933594 8.601562 46.753906 5.144531 45.105469 2.917969 Z M 45.105469 2.917969 "/>
</clipPath>
<clipPath id="clip18">
  <path d="M 28.695312 5.507812 L 42.4375 -5.035156 L 51.945312 7.8125 L 38.203125 18.351562 Z M 28.695312 5.507812 "/>
</clipPath>
<clipPath id="clip19">
  <path d="M 45.105469 2.917969 C 43.457031 0.691406 39.964844 0.542969 37.308594 2.582031 C 34.648438 4.621094 33.828125 8.078125 35.476562 10.304688 C 37.125 12.53125 40.613281 12.683594 43.273438 10.640625 C 45.933594 8.601562 46.753906 5.144531 45.105469 2.917969 Z M 45.105469 2.917969 "/>
</clipPath>
<clipPath id="clip20">
  <path d="M 33.890625 11.210938 L 37.214844 -0.578125 L 46.753906 2.207031 L 43.429688 13.996094 Z M 33.890625 11.210938 "/>
</clipPath>
<clipPath id="clip21">
  <path d="M 34 1 L 46 1 L 46 13 L 34 13 Z M 34 1 "/>
</clipPath>
<clipPath id="clip22">
  <path d="M 45.105469 2.917969 C 43.457031 0.691406 39.964844 0.542969 37.308594 2.582031 C 34.648438 4.621094 33.828125 8.078125 35.476562 10.304688 C 37.125 12.53125 40.613281 12.683594 43.273438 10.640625 C 45.933594 8.601562 46.753906 5.144531 45.105469 2.917969 Z M 45.105469 2.917969 "/>
</clipPath>
<clipPath id="clip23">
  <path d="M 28.695312 5.507812 L 42.4375 -5.035156 L 51.945312 7.8125 L 38.203125 18.351562 Z M 28.695312 5.507812 "/>
</clipPath>
<clipPath id="clip24">
  <path d="M 45.105469 2.917969 C 43.457031 0.691406 39.964844 0.542969 37.308594 2.582031 C 34.648438 4.621094 33.828125 8.078125 35.476562 10.304688 C 37.125 12.53125 40.613281 12.683594 43.273438 10.640625 C 45.933594 8.601562 46.753906 5.144531 45.105469 2.917969 Z M 45.105469 2.917969 "/>
</clipPath>
<clipPath id="clip25">
  <path d="M 34 1 L 46 1 L 46 13 L 34 13 Z M 34 1 "/>
</clipPath>
<clipPath id="clip26">
  <path d="M 45.105469 2.917969 C 43.457031 0.691406 39.964844 0.542969 37.308594 2.582031 C 34.648438 4.621094 33.828125 8.078125 35.476562 10.304688 C 37.125 12.53125 40.613281 12.683594 43.273438 10.640625 C 45.933594 8.601562 46.753906 5.144531 45.105469 2.917969 Z M 45.105469 2.917969 "/>
</clipPath>
<clipPath id="clip27">
  <path d="M 28.695312 5.507812 L 42.4375 -5.035156 L 51.945312 7.8125 L 38.203125 18.351562 Z M 28.695312 5.507812 "/>
</clipPath>
<clipPath id="clip28">
  <path d="M 37 3 L 44 3 L 44 10 L 37 10 Z M 37 3 "/>
</clipPath>
<clipPath id="clip29">
  <path d="M 45.105469 2.917969 C 43.457031 0.691406 39.964844 0.542969 37.308594 2.582031 C 34.648438 4.621094 33.828125 8.078125 35.476562 10.304688 C 37.125 12.53125 40.613281 12.683594 43.273438 10.640625 C 45.933594 8.601562 46.753906 5.144531 45.105469 2.917969 Z M 45.105469 2.917969 "/>
</clipPath>
<clipPath id="clip30">
  <path d="M 28.695312 5.507812 L 42.4375 -5.035156 L 51.945312 7.8125 L 38.203125 18.351562 Z M 28.695312 5.507812 "/>
</clipPath>
</defs>
<g id="surface1">
<path style=" stroke:none;fill-rule:nonzero;fill:rgb(0%,0%,0%);fill-opacity:1;" d="M 27.359375 6.625 L 29.878906 6.457031 C 29.9375 6.878906 30.039062 7.191406 30.214844 7.414062 C 30.492188 7.765625 30.875 7.941406 31.378906 7.941406 C 31.753906 7.941406 32.050781 7.851562 32.25 7.667969 C 32.441406 7.519531 32.558594 7.285156 32.558594 7.042969 C 32.558594 6.808594 32.453125 6.585938 32.269531 6.4375 C 32.078125 6.265625 31.628906 6.089844 30.921875 5.933594 C 29.761719 5.667969 28.929688 5.320312 28.441406 4.871094 C 27.953125 4.453125 27.675781 3.839844 27.695312 3.1875 C 27.695312 2.738281 27.832031 2.289062 28.078125 1.917969 C 28.367188 1.5 28.757812 1.167969 29.226562 0.984375 C 29.734375 0.761719 30.441406 0.644531 31.332031 0.644531 C 32.425781 0.644531 33.257812 0.847656 33.832031 1.265625 C 34.40625 1.675781 34.75 2.339844 34.855469 3.242188 L 32.367188 3.390625 C 32.300781 3 32.164062 2.71875 31.945312 2.53125 C 31.726562 2.347656 31.4375 2.261719 31.066406 2.261719 C 30.757812 2.261719 30.527344 2.328125 30.375 2.453125 C 30.230469 2.570312 30.136719 2.746094 30.144531 2.941406 C 30.144531 3.089844 30.222656 3.222656 30.335938 3.3125 C 30.460938 3.429688 30.757812 3.535156 31.226562 3.632812 C 32.386719 3.886719 33.207031 4.140625 33.714844 4.402344 C 34.222656 4.667969 34.585938 4.988281 34.808594 5.367188 C 35.035156 5.757812 35.152344 6.207031 35.140625 6.664062 C 35.140625 7.207031 34.988281 7.753906 34.683594 8.210938 C 34.367188 8.691406 33.925781 9.058594 33.410156 9.285156 C 32.863281 9.527344 32.175781 9.652344 31.351562 9.652344 C 29.898438 9.652344 28.890625 9.371094 28.328125 8.796875 C 27.761719 8.222656 27.429688 7.5 27.359375 6.625 Z M 0.652344 9.507812 L 0.652344 0.800781 L 5.0625 0.800781 C 5.875 0.800781 6.507812 0.867188 6.9375 1.011719 C 7.359375 1.148438 7.734375 1.433594 7.980469 1.8125 C 8.257812 2.230469 8.394531 2.71875 8.382812 3.222656 C 8.414062 4.082031 7.980469 4.898438 7.246094 5.328125 C 6.957031 5.496094 6.640625 5.609375 6.316406 5.667969 C 6.554688 5.738281 6.796875 5.855469 7.003906 5.992188 C 7.167969 6.128906 7.300781 6.285156 7.425781 6.449219 C 7.570312 6.613281 7.695312 6.800781 7.800781 6.996094 L 9.082031 9.519531 L 6.078125 9.519531 L 4.660156 6.839844 C 4.480469 6.496094 4.324219 6.273438 4.183594 6.167969 C 3.992188 6.03125 3.761719 5.960938 3.53125 5.960938 L 3.300781 5.960938 L 3.300781 9.5 L 0.652344 9.5 Z M 3.300781 4.324219 L 4.421875 4.324219 C 4.660156 4.304688 4.890625 4.265625 5.121094 4.207031 C 5.292969 4.179688 5.445312 4.082031 5.550781 3.9375 C 5.808594 3.585938 5.769531 3.089844 5.457031 2.785156 C 5.28125 2.640625 4.949219 2.5625 4.46875 2.5625 L 3.300781 2.5625 Z M 0.046875 16.96875 L 2.566406 16.804688 C 2.621094 17.222656 2.726562 17.535156 2.898438 17.757812 C 3.167969 18.109375 3.558594 18.296875 4.066406 18.296875 C 4.441406 18.296875 4.738281 18.207031 4.9375 18.023438 C 5.128906 17.867188 5.246094 17.640625 5.246094 17.398438 C 5.246094 17.164062 5.140625 16.941406 4.957031 16.796875 C 4.765625 16.621094 4.316406 16.445312 3.597656 16.289062 C 2.441406 16.023438 1.609375 15.675781 1.121094 15.226562 C 0.632812 14.808594 0.355469 14.195312 0.375 13.542969 C 0.375 13.09375 0.507812 12.644531 0.757812 12.273438 C 1.042969 11.855469 1.4375 11.523438 1.90625 11.339844 C 2.410156 11.117188 3.121094 11 4.011719 11 C 5.101562 11 5.933594 11.203125 6.507812 11.621094 C 7.082031 12.039062 7.417969 12.695312 7.523438 13.601562 L 5.035156 13.746094 C 4.96875 13.355469 4.832031 13.074219 4.613281 12.886719 C 4.402344 12.703125 4.105469 12.617188 3.734375 12.625 C 3.425781 12.625 3.195312 12.695312 3.042969 12.828125 C 2.890625 12.945312 2.804688 13.121094 2.8125 13.316406 C 2.8125 13.464844 2.890625 13.601562 3.003906 13.6875 C 3.128906 13.804688 3.425781 13.910156 3.894531 14.007812 C 5.054688 14.261719 5.875 14.515625 6.382812 14.777344 C 6.890625 15.042969 7.253906 15.363281 7.476562 15.742188 C 7.703125 16.132812 7.820312 16.582031 7.820312 17.027344 C 7.820312 17.574219 7.65625 18.109375 7.359375 18.566406 C 7.042969 19.046875 6.605469 19.414062 6.085938 19.640625 C 5.542969 19.882812 4.851562 20.007812 4.03125 20.007812 C 2.574219 20.007812 1.570312 19.726562 1.003906 19.152344 C 0.441406 18.566406 0.125 17.847656 0.046875 16.96875 Z M 0.046875 16.96875 "/>
<path style=" stroke:none;fill-rule:nonzero;fill:rgb(0%,0%,0%);fill-opacity:1;" d="M 12.777344 16.289062 L 15.09375 17 C 14.96875 17.59375 14.710938 18.160156 14.355469 18.65625 C 14.03125 19.09375 13.597656 19.433594 13.113281 19.660156 C 12.613281 19.882812 11.980469 20 11.214844 20 C 10.289062 20 9.523438 19.863281 8.9375 19.589844 C 8.34375 19.316406 7.839844 18.832031 7.40625 18.140625 C 6.976562 17.449219 6.765625 16.5625 6.765625 15.480469 C 6.765625 14.039062 7.140625 12.925781 7.894531 12.15625 C 8.652344 11.386719 9.714844 11 11.09375 11 C 12.171875 11 13.015625 11.222656 13.636719 11.660156 C 14.25 12.109375 14.710938 12.792969 15.015625 13.707031 L 12.679688 14.234375 C 12.625 14.027344 12.539062 13.824219 12.421875 13.648438 C 12.277344 13.445312 12.097656 13.289062 11.875 13.171875 C 11.65625 13.054688 11.40625 13.003906 11.160156 13.003906 C 10.554688 13.003906 10.097656 13.25 9.78125 13.746094 C 9.542969 14.105469 9.417969 14.679688 9.417969 15.460938 C 9.417969 16.425781 9.5625 17.085938 9.847656 17.449219 C 10.136719 17.808594 10.535156 17.984375 11.0625 17.984375 C 11.570312 17.984375 11.953125 17.835938 12.210938 17.554688 C 12.46875 17.253906 12.660156 16.832031 12.777344 16.289062 Z M 18.183594 11.144531 L 20.824219 11.144531 L 20.824219 14.195312 L 23.714844 14.195312 L 23.714844 11.144531 L 26.375 11.144531 L 26.375 19.855469 L 23.714844 19.855469 L 23.714844 16.328125 L 20.824219 16.328125 L 20.824219 19.855469 L 18.183594 19.855469 Z M 18.183594 11.144531 "/>
<path style=" stroke:none;fill-rule:nonzero;fill:rgb(0%,0%,0%);fill-opacity:1;" d="M 26.011719 15.5 C 26.011719 14.078125 26.40625 12.964844 27.179688 12.175781 C 27.953125 11.386719 29.046875 10.988281 30.433594 10.988281 C 31.859375 10.988281 32.949219 11.378906 33.726562 12.15625 C 34.5 12.9375 34.882812 14.027344 34.882812 15.429688 C 34.882812 16.453125 34.710938 17.28125 34.375 17.933594 C 34.050781 18.578125 33.542969 19.105469 32.921875 19.453125 C 32.28125 19.816406 31.484375 20 30.539062 20 C 29.570312 20 28.777344 19.84375 28.144531 19.53125 C 27.496094 19.199219 26.960938 18.683594 26.605469 18.050781 C 26.214844 17.371094 26.011719 16.523438 26.011719 15.5 Z M 28.652344 15.507812 C 28.652344 16.386719 28.816406 17.019531 29.132812 17.410156 C 29.449219 17.789062 29.886719 17.984375 30.441406 17.984375 C 31.007812 17.984375 31.449219 17.796875 31.761719 17.417969 C 32.078125 17.039062 32.234375 16.367188 32.234375 15.390625 C 32.234375 14.574219 32.070312 13.96875 31.746094 13.601562 C 31.417969 13.21875 30.980469 13.035156 30.421875 13.035156 C 29.9375 13.015625 29.464844 13.230469 29.140625 13.609375 C 28.816406 13.988281 28.652344 14.621094 28.652344 15.507812 Z M 37.589844 15.5 C 37.589844 14.078125 37.984375 12.964844 38.757812 12.175781 C 39.535156 11.386719 40.625 10.988281 42.011719 10.988281 C 43.4375 10.988281 44.539062 11.378906 45.304688 12.15625 C 46.070312 12.9375 46.464844 14.027344 46.464844 15.429688 C 46.464844 16.453125 46.289062 17.28125 45.957031 17.933594 C 45.628906 18.578125 45.125 19.105469 44.5 19.453125 C 43.859375 19.816406 43.066406 20 42.117188 20 C 41.152344 20 40.359375 19.84375 39.726562 19.53125 C 39.074219 19.199219 38.539062 18.683594 38.183594 18.050781 C 37.792969 17.371094 37.589844 16.523438 37.589844 15.5 Z M 40.234375 15.507812 C 40.234375 16.386719 40.394531 17.019531 40.710938 17.410156 C 41.027344 17.789062 41.46875 17.984375 42.023438 17.984375 C 42.585938 17.984375 43.027344 17.796875 43.34375 17.417969 C 43.660156 17.039062 43.8125 16.367188 43.8125 15.390625 C 43.8125 14.574219 43.648438 13.96875 43.324219 13.601562 C 43 13.21875 42.558594 13.035156 42.003906 13.035156 C 41.515625 13.015625 41.035156 13.230469 40.722656 13.609375 C 40.394531 13.988281 40.234375 14.621094 40.234375 15.507812 Z M 40.234375 15.507812 "/>
<path style=" stroke:none;fill-rule:nonzero;fill:rgb(0%,0%,0%);fill-opacity:1;" d="M 46.1875 11.144531 L 48.828125 11.144531 L 48.828125 17.710938 L 52.953125 17.710938 L 52.953125 19.855469 L 46.175781 19.855469 L 46.175781 11.144531 Z M 46.1875 11.144531 "/>
<path style=" stroke:none;fill-rule:nonzero;fill:rgb(100%,100%,100%);fill-opacity:1;" d="M 45.105469 2.917969 C 43.457031 0.691406 39.964844 0.542969 37.308594 2.582031 C 34.648438 4.621094 33.828125 8.078125 35.476562 10.304688 C 37.125 12.53125 40.613281 12.683594 43.273438 10.640625 C 45.933594 8.601562 46.753906 5.144531 45.105469 2.917969 Z M 45.105469 2.917969 "/>
<g clip-path="url(#clip1)" clip-rule="nonzero">
<g clip-path="url(#clip2)" clip-rule="nonzero">
<path style=" stroke:none;fill-rule:nonzero;fill:rgb(100%,100%,100%);fill-opacity:1;" d="M 28.695312 5.507812 L 42.4375 -5.035156 L 51.945312 7.8125 L 38.203125 18.351562 Z M 28.695312 5.507812 "/>
<g clip-path="url(#clip3)" clip-rule="nonzero">
<path style=" stroke:none;fill-rule:nonzero;fill:rgb(100%,100%,100%);fill-opacity:1;" d="M 45.105469 2.917969 C 43.457031 0.691406 39.964844 0.542969 37.308594 2.582031 C 34.648438 4.621094 33.828125 8.078125 35.476562 10.304688 C 37.125 12.53125 40.613281 12.683594 43.273438 10.640625 C 45.933594 8.601562 46.753906 5.144531 45.105469 2.917969 Z M 45.105469 2.917969 "/>
<g clip-path="url(#clip4)" clip-rule="nonzero">
<path style=" stroke:none;fill-rule:nonzero;fill:rgb(100%,100%,100%);fill-opacity:1;" d="M 32.519531 6.367188 L 42.144531 -1.015625 L 48.117188 7.050781 L 38.492188 14.433594 Z M 32.519531 6.367188 "/>
<g clip-path="url(#clip5)" clip-rule="nonzero">
<path style="fill-rule:nonzero;fill:rgb(100%,100%,100%);fill-opacity:1;stroke-width:4;stroke-linecap:butt;stroke-linejoin:miter;stroke:rgb(0%,0%,0%);stroke-opacity:1;stroke-miterlimit:10;" d="M 483.498643 67.894312 C 483.497603 39.274761 455.272251 16.096742 420.50893 16.108516 C 385.713011 16.095725 357.51073 39.277414 357.51177 67.896965 C 357.512809 96.516517 385.681432 119.701994 420.501482 119.682762 C 455.297401 119.695552 483.499682 96.513864 483.498643 67.894312 Z M 483.498643 67.894312 " transform="matrix(0.0764291,-0.0586292,0.0575955,0.0778008,4.24171,25.982887)"/>
</g>
</g>
</g>
</g>
</g>
<g clip-path="url(#clip6)" clip-rule="nonzero">
<g clip-path="url(#clip7)" clip-rule="nonzero">
<g clip-path="url(#clip8)" clip-rule="nonzero">
<g clip-path="url(#clip9)" clip-rule="nonzero">
<g clip-path="url(#clip10)" clip-rule="nonzero">
<path style="fill:none;stroke-width:4;stroke-linecap:butt;stroke-linejoin:miter;stroke:rgb(0%,0%,0%);stroke-opacity:1;stroke-miterlimit:10;" d="M 357.782527 17.004803 L 483.71267 17.00741 L 483.723964 120.694832 L 357.79382 120.692225 Z M 357.782527 17.004803 " transform="matrix(0.0764301,-0.0586279,0.0575942,0.0778018,4.194809,26.020208)"/>
</g>
</g>
</g>
</g>
</g>
<g clip-path="url(#clip11)" clip-rule="nonzero">
<g clip-path="url(#clip12)" clip-rule="nonzero">
<g clip-path="url(#clip13)" clip-rule="nonzero">
<g clip-path="url(#clip14)" clip-rule="nonzero">
<path style="fill:none;stroke-width:4;stroke-linecap:butt;stroke-linejoin:miter;stroke:rgb(0%,0%,0%);stroke-opacity:1;stroke-miterlimit:10;" d="M 483.498643 67.894312 C 483.497603 39.274761 455.272251 16.096742 420.50893 16.108516 C 385.713011 16.095725 357.51073 39.277414 357.51177 67.896965 C 357.512809 96.516517 385.681432 119.701994 420.501482 119.682762 C 455.297401 119.695552 483.499682 96.513864 483.498643 67.894312 Z M 483.498643 67.894312 " transform="matrix(0.0764291,-0.0586292,0.0575955,0.0778008,4.24171,25.982887)"/>
<path style=" stroke:none;fill-rule:nonzero;fill:rgb(100%,100%,100%);fill-opacity:1;" d="M 32.519531 6.367188 L 42.144531 -1.015625 L 48.117188 7.050781 L 38.492188 14.433594 Z M 32.519531 6.367188 "/>
<g clip-path="url(#clip15)" clip-rule="nonzero">
<path style="fill-rule:nonzero;fill:rgb(100%,100%,100%);fill-opacity:1;stroke-width:4;stroke-linecap:butt;stroke-linejoin:miter;stroke:rgb(0%,0%,0%);stroke-opacity:1;stroke-miterlimit:10;" d="M 483.498643 67.894312 C 483.497603 39.274761 455.272251 16.096742 420.50893 16.108516 C 385.713011 16.095725 357.51073 39.277414 357.51177 67.896965 C 357.512809 96.516517 385.681432 119.701994 420.501482 119.682762 C 455.297401 119.695552 483.499682 96.513864 483.498643 67.894312 Z M 483.498643 67.894312 " transform="matrix(0.0764291,-0.0586292,0.0575955,0.0778008,4.24171,25.982887)"/>
</g>
</g>
</g>
</g>
</g>
<g clip-path="url(#clip16)" clip-rule="nonzero">
<g clip-path="url(#clip17)" clip-rule="nonzero">
<g clip-path="url(#clip18)" clip-rule="nonzero">
<g clip-path="url(#clip19)" clip-rule="nonzero">
<g clip-path="url(#clip20)" clip-rule="nonzero">
<path style="fill:none;stroke-width:4;stroke-linecap:butt;stroke-linejoin:miter;stroke:rgb(0%,0%,0%);stroke-opacity:1;stroke-miterlimit:10;" d="M 357.782527 17.004803 L 483.71267 17.00741 L 483.723964 120.694832 L 357.79382 120.692225 Z M 357.782527 17.004803 " transform="matrix(0.0764301,-0.0586279,0.0575942,0.0778018,4.194809,26.020208)"/>
</g>
</g>
</g>
</g>
</g>
<g clip-path="url(#clip21)" clip-rule="nonzero">
<g clip-path="url(#clip22)" clip-rule="nonzero">
<g clip-path="url(#clip23)" clip-rule="nonzero">
<g clip-path="url(#clip24)" clip-rule="nonzero">
<path style="fill:none;stroke-width:4;stroke-linecap:butt;stroke-linejoin:miter;stroke:rgb(0%,0%,0%);stroke-opacity:1;stroke-miterlimit:10;" d="M 330.91329 -14.193584 L 510.724168 -14.203828 L 510.697109 150.911096 L 330.910364 150.889316 Z M 330.91329 -14.193584 " transform="matrix(0.0764291,-0.0586292,0.0575955,0.0778008,4.221406,26.013273)"/>
</g>
</g>
</g>
</g>
<g clip-path="url(#clip25)" clip-rule="nonzero">
<g clip-path="url(#clip26)" clip-rule="nonzero">
<g clip-path="url(#clip27)" clip-rule="nonzero">
<path style="fill:none;stroke-width:4;stroke-linecap:butt;stroke-linejoin:miter;stroke:rgb(0%,0%,0%);stroke-opacity:1;stroke-miterlimit:10;" d="M 483.498643 67.894312 C 483.497603 39.274761 455.272251 16.096742 420.50893 16.108516 C 385.713011 16.095725 357.51073 39.277414 357.51177 67.896965 C 357.512809 96.516517 385.681432 119.701994 420.501482 119.682762 C 455.297401 119.695552 483.499682 96.513864 483.498643 67.894312 Z M 483.498643 67.894312 " transform="matrix(0.0764291,-0.0586292,0.0575955,0.0778008,4.24171,25.982887)"/>
</g>
</g>
</g>
<g clip-path="url(#clip28)" clip-rule="nonzero">
<g clip-path="url(#clip29)" clip-rule="nonzero">
<g clip-path="url(#clip30)" clip-rule="nonzero">
<path style=" stroke:none;fill-rule:nonzero;fill:rgb(0%,0%,0%);fill-opacity:1;" d="M 37.601562 5.972656 L 38.558594 5.289062 L 39.734375 6.996094 C 39.9375 7.265625 40.089844 7.558594 40.203125 7.882812 C 40.269531 8.125 40.253906 8.386719 40.15625 8.621094 C 40.03125 8.914062 39.832031 9.15625 39.5625 9.332031 C 39.246094 9.558594 38.980469 9.683594 38.75 9.722656 C 38.53125 9.761719 38.300781 9.722656 38.089844 9.625 C 37.859375 9.507812 37.660156 9.34375 37.503906 9.128906 L 38.328125 8.347656 C 38.394531 8.457031 38.480469 8.554688 38.578125 8.632812 C 38.644531 8.679688 38.722656 8.710938 38.808594 8.710938 C 38.875 8.710938 38.941406 8.679688 38.988281 8.640625 C 39.085938 8.582031 39.152344 8.464844 39.140625 8.347656 C 39.113281 8.183594 39.046875 8.015625 38.941406 7.890625 Z M 40.472656 7.054688 L 41.34375 6.351562 C 41.4375 6.46875 41.5625 6.554688 41.699219 6.605469 C 41.890625 6.664062 42.089844 6.625 42.253906 6.496094 C 42.367188 6.417969 42.464844 6.3125 42.5 6.175781 C 42.558594 6 42.464844 5.804688 42.289062 5.746094 C 42.261719 5.738281 42.234375 5.726562 42.203125 5.726562 C 42.089844 5.71875 41.890625 5.765625 41.59375 5.894531 C 41.105469 6.097656 40.722656 6.175781 40.433594 6.148438 C 40.15625 6.117188 39.898438 5.972656 39.746094 5.726562 C 39.628906 5.5625 39.574219 5.367188 39.5625 5.171875 C 39.5625 4.949219 39.621094 4.726562 39.746094 4.539062 C 39.925781 4.277344 40.148438 4.050781 40.414062 3.878906 C 40.816406 3.59375 41.171875 3.457031 41.476562 3.457031 C 41.785156 3.457031 42.070312 3.605469 42.339844 3.90625 L 41.476562 4.597656 C 41.304688 4.375 40.980469 4.324219 40.757812 4.5 L 40.730469 4.53125 C 40.636719 4.589844 40.566406 4.675781 40.53125 4.785156 C 40.5 4.859375 40.519531 4.949219 40.566406 5.015625 C 40.605469 5.066406 40.664062 5.105469 40.730469 5.105469 C 40.808594 5.113281 40.941406 5.074219 41.132812 4.988281 C 41.609375 4.785156 41.976562 4.667969 42.222656 4.628906 C 42.433594 4.589844 42.65625 4.609375 42.855469 4.695312 C 43.035156 4.773438 43.191406 4.910156 43.296875 5.074219 C 43.429688 5.269531 43.507812 5.503906 43.515625 5.746094 C 43.523438 6 43.457031 6.246094 43.324219 6.457031 C 43.152344 6.722656 42.933594 6.945312 42.671875 7.121094 C 42.148438 7.492188 41.714844 7.648438 41.371094 7.589844 C 41 7.53125 40.691406 7.335938 40.472656 7.054688 Z M 40.472656 7.054688 "/>
</g>
</g>
</g>
</g>
</svg>
